<svg xmlns="http://www.w3.org/2000/svg" version="1.1" xmlns:xlink="http://www.w3.org/1999/xlink" xmlns:svgjs="http://svgjs.dev/svgjs" width="100%" height="100%" viewBox="0 0 1000 600"><rect width="1000" height="600" x="0" y="0" fill="#ffffff"/><g><circle r="166.66666666666666" cx="405.82148234049475" cy="428.0435384041522" fill="#000000" transform="matrix(0.5226744302771529,0,0,0.5226744302771528,0,76.27261494392779)"/><path d="M366.0548158398404 368.7665362032238Q366.0548158398404 360.50333844948784 360.6607839728183 356.77342279675986Q355.29544376466345 353.0435071440319 343.73270524120653 353.0435071440319L343.73270524120653 353.0435071440319Q313.5777717718439 353.0435071440319 285.0582628579082 363.17166272413175L285.0582628579082 363.17166272413175L285.0582628579082 361.9379213928448Q285.2591044699781 357.6054809039069 284.3409713862297 355.8552897130114Q283.42283830248124 354.07640686324885 280.61105573350164 353.55995700364036Q277.8279648233892 353.0435071440319 271.22888328394737 353.0435071440319L271.22888328394737 353.0435071440319Q258.40371177033643 353.0435071440319 244.77517380844557 356.97426440882987L244.77517380844557 356.97426440882987Q244.17264897223566 358.83922223519386 244.17264897223566 360.50333844948784L244.17264897223566 360.50333844948784Q244.17264897223566 362.9708211120618 244.97601542051555 364.4054040554187L244.97601542051555 364.4054040554187L258.00202854619647 364.00372083127877Q260.2686695967004 364.00372083127877 260.2686695967004 375.3656177426657L260.2686695967004 375.3656177426657L260.2686695967004 494.14908545261943Q260.0678279846304 498.4815259415573 260.98596106837886 500.23171713245273Q261.93278581099446 502.01059998221535 264.7158767211069 502.52704984182384Q267.49896763121933 503.0434997014324 274.12674082952833 503.0434997014324L274.12674082952833 503.0434997014324Q286.92322068427217 503.0434997014324 300.55175864616297 499.1127424366344L300.55175864616297 499.1127424366344Q301.18297514124004 497.24778461027034 301.18297514124004 495.5836683959763L301.18297514124004 495.5836683959763Q301.18297514124004 493.11618573340235 300.350917034093 491.6816027900455L300.350917034093 491.6816027900455L287.3249039084121 492.0832860141854Q285.0582628579082 492.0832860141854 285.0582628579082 480.7213891027985L285.0582628579082 480.7213891027985L285.0582628579082 373.50065991630163Q310.278231002123 366.70073676478984 325.14051029530077 366.70073676478984L325.14051029530077 366.70073676478984Q334.63744938032363 366.70073676478984 337.93699015004455 369.36906103943375Q341.26522257863263 372.06607697294476 341.26522257863263 380.1284331146107L341.26522257863263 380.1284331146107L341.26522257863263 494.14908545261943Q341.0356893076955 498.4815259415573 341.9825140503111 500.23171713245273Q342.90064713405957 502.01059998221535 345.68373804417195 502.52704984182384Q348.49552061315154 503.0434997014324 355.09460215259344 503.0434997014324L355.09460215259344 503.0434997014324Q367.8910820073372 503.0434997014324 381.54831162809523 499.1127424366344L381.54831162809523 499.1127424366344Q382.15083646430514 497.24778461027034 382.15083646430514 495.5836683959763L382.15083646430514 495.5836683959763Q382.15083646430514 493.11618573340235 381.31877835715807 491.6816027900455L381.31877835715807 491.6816027900455L368.32145689034434 492.0832860141854Q366.0548158398404 492.0832860141854 366.0548158398404 480.7213891027985L366.0548158398404 480.7213891027985L366.0548158398404 368.7665362032238ZM567.4702610871533 361.9379213928448Q567.4702610871533 358.4375390110539 567.2407278162161 357.1751060208998L567.2407278162161 357.1751060208998Q566.6382029800062 353.87556525117884 561.2728627718514 353.27304041496893L561.2728627718514 353.27304041496893Q559.4079049454873 353.0435071440319 553.6121898543254 353.0435071440319L553.6121898543254 353.0435071440319Q541.0165516116515 353.0435071440319 527.1871720376906 356.97426440882987L527.1871720376906 356.97426440882987Q526.5559555426137 358.83922223519386 526.5559555426137 360.50333844948784L526.5559555426137 360.50333844948784Q526.5559555426137 362.9708211120618 527.3880136497606 364.4054040554187L527.3880136497606 364.4054040554187L540.3853351165744 364.00372083127877Q541.4182348357915 364.00372083127877 542.0494513308685 366.2703618817827L542.0494513308685 366.2703618817827Q542.6806678259455 368.3361613202167 542.6806678259455 375.3656177426657L542.6806678259455 375.3656177426657L542.6806678259455 473.4910910682796Q542.6806678259455 479.4876477715116 541.5330014712599 482.9880301533025Q540.3853351165744 486.5171041939605 537.5161692298606 488.3533703614574L537.5161692298606 488.3533703614574Q534.1879368012725 490.41916979989134 528.3061467335091 491.2512279070384Q522.4243566657457 492.0832860141854 512.4970426977158 492.0832860141854L512.4970426977158 492.0832860141854Q503.0001036126929 492.0832860141854 499.700562842972 489.61580335161153L499.700562842972 489.61580335161153Q496.40102207325094 487.1196290301704 496.40102207325094 478.6555896643645L496.40102207325094 478.6555896643645L496.40102207325094 361.9379213928448Q496.40102207325094 358.4375390110539 496.20018046118093 357.1751060208998L496.20018046118093 357.1751060208998Q495.568963966104 353.87556525117884 490.203623757949 353.27304041496893L490.203623757949 353.27304041496893Q488.33866593158507 353.0435071440319 482.54295084042303 353.0435071440319L482.54295084042303 353.0435071440319Q469.94731259774915 353.0435071440319 456.1179330237884 356.97426440882987L456.1179330237884 356.97426440882987Q455.4867165287113 358.83922223519386 455.4867165287113 360.50333844948784L455.4867165287113 360.50333844948784Q455.4867165287113 362.9708211120618 456.31877463585835 364.4054040554187L456.31877463585835 364.4054040554187L469.34478776153924 364.00372083127877Q470.37768748075626 364.00372083127877 470.9802123169662 366.2703618817827L470.9802123169662 366.2703618817827Q471.6114288120432 368.3361613202167 471.6114288120432 375.3656177426657L471.6114288120432 375.3656177426657L471.6114288120432 484.22177148458945Q458.38457407429235 490.6487030708285 439.9932207404565 490.6487030708285L439.9932207404565 490.6487030708285Q432.9637643180075 490.6487030708285 430.6110482909022 487.234395665639Q428.2296406049297 483.8200882604495 428.2296406049297 474.7248323995666L428.2296406049297 474.7248323995666L428.2296406049297 361.9379213928448Q428.2296406049297 358.4375390110539 428.0287989928597 357.1751060208998L428.0287989928597 357.1751060208998Q427.39758249778265 353.87556525117884 422.03224228962773 353.27304041496893L422.03224228962773 353.27304041496893Q420.16728446326374 353.0435071440319 414.3715693721017 353.0435071440319L414.3715693721017 353.0435071440319Q401.77593112942793 353.0435071440319 387.94655155546707 356.97426440882987L387.94655155546707 356.97426440882987Q387.31533506039005 358.83922223519386 387.31533506039005 360.50333844948784L387.31533506039005 360.50333844948784Q387.31533506039005 362.9708211120618 388.1473931675371 364.4054040554187L388.1473931675371 364.4054040554187L401.173406293218 364.00372083127877Q402.206306012435 364.00372083127877 402.8088308486449 366.2703618817827L402.8088308486449 366.2703618817827Q403.440047343722 368.3361613202167 403.440047343722 375.3656177426657L403.440047343722 375.3656177426657L403.440047343722 480.31970587865857Q403.440047343722 487.1196290301704 404.9893969225474 491.36599454250694Q406.53874650137294 495.5836683959763 409.83828727109386 498.0798427174174L409.83828727109386 498.0798427174174Q413.1378280408148 500.54732537999126 418.7327015199068 501.6949917346769Q424.29888334013174 502.8139664304952 433.19329758894463 502.8139664304952L433.19329758894463 502.8139664304952Q444.3256612293944 502.8139664304952 455.0850333045714 500.3464837679213Q465.81571372088126 497.8790011053474 474.5092863576242 493.9482438405494L474.5092863576242 493.9482438405494Q480.70668467292614 503.0434997014324 497.83560501660793 503.0434997014324L497.83560501660793 503.0434997014324Q515.8252751263038 503.0434997014324 528.2200717569077 502.01059998221535Q540.6148683875116 500.9777002629984 548.8780661412475 498.0798427174174L548.8780661412475 498.0798427174174Q558.1741636142003 494.9811435597664 562.8222123506768 489.38627008067436Q567.4702610871533 483.8200882604495 567.4702610871533 474.5239907874966L567.4702610871533 474.5239907874966L567.4702610871533 361.9379213928448Z " fill="#ffffff" transform="matrix(0.5226744302771529,0,0,0.5226744302771528,0,76.27261494392779)"/><path d="M712.1850879619499 378.1028033645273Q739.7740202136315 370.11861380171973 752.5803440668475 370.11861380171973L752.5803440668475 370.11861380171973Q768.5091975015577 370.11861380171973 768.5091975015577 381.77869261869114L768.5091975015577 381.77869261869114L768.5091975015577 490.79054813464785Q768.2325176652228 496.75892746130097 769.2206599378475 499.1699946065052Q770.2088022104722 501.6205874426145 773.6475373192061 502.3320498789043Q777.046746737035 503.04351231519405 785.5842959725125 503.04351231519405L785.5842959725125 503.04351231519405Q805.2285643522914 503.04351231519405 824.0032675321607 497.6284926612107L824.0032675321607 497.6284926612107Q824.8728327320704 495.0593227523865 824.8728327320704 492.7668326798972L824.8728327320704 492.7668326798972Q824.8728327320704 489.3676232620682 823.7265876958257 487.39133871681884L823.7265876958257 487.39133871681884L804.0823193160468 487.9446983894887Q800.9597897345527 487.9446983894887 800.9597897345527 472.29252479111346L800.9597897345527 472.29252479111346L800.9597897345527 374.6640682557934Q800.9597897345527 363.0039894388219 794.3985250443247 358.02375238479345Q787.8767860450017 353.043515330765 772.2246124466266 353.043515330765L772.2246124466266 353.043515330765Q769.3787627014674 353.043515330765 762.5408181749045 353.6364006943398L762.5408181749045 353.6364006943398Q751.157419194268 355.05932556691937 743.1732296314603 357.03561011216874L743.1732296314603 357.03561011216874Q736.6514906321374 358.4585349847483 736.9281704684723 358.4585349847483L736.9281704684723 358.4585349847483Q732.6593958507336 359.32810018465807 722.6989217426767 362.1739499298171L722.6989217426767 362.1739499298171L712.1850879619499 365.2964795113112Q712.4617677982849 359.32810018465807 711.47362552566 356.87750734854876Q710.4459575621304 354.4664402033445 707.0467481443015 353.75497776705475Q703.6475387264725 353.043515330765 695.1099894909951 353.043515330765L695.1099894909951 353.043515330765Q675.4657211112161 353.043515330765 656.6910179313469 358.4585349847483L656.6910179313469 358.4585349847483Q655.8214527314371 361.0277048935725 655.8214527314371 363.2806692751568L655.8214527314371 363.2806692751568Q655.8214527314371 366.7194043838908 656.9676977676818 368.69568892914015L656.9676977676818 368.69568892914015L676.6119661474609 368.14232925647036Q679.7344957289548 368.14232925647036 679.7344957289548 383.7945028548455L679.7344957289548 383.7945028548455L679.7344957289548 498.18185233388056Q679.7344957289548 503.04351231519405 684.5566300193634 503.04351231519405L684.5566300193634 503.04351231519405Q696.8095941999096 503.04351231519405 707.6001078169713 499.88145704279503L707.6001078169713 499.88145704279503Q712.1850879619499 498.18185233388056 712.1850879619499 494.1897575524768L712.1850879619499 494.1897575524768L712.1850879619499 378.1028033645273ZM958.3510909182146 480.276714353921Q949.4973361554972 482.52967873550534 930.0111705393382 485.6522083169994Q910.5250049231792 488.8142635893984 899.1416059425427 488.8142635893984L899.1416059425427 488.8142635893984Q886.3352820893266 488.8142635893984 882.2246102352079 485.37552848066446Q878.0744126901842 481.9763190628355 878.0744126901842 471.14627975486883L878.0744126901842 471.14627975486883L878.0744126901842 438.69568752187377Q903.9637402329512 436.9960828129593 935.5842929569416 432.17394852255075L935.5842929569416 432.17394852255075Q948.6672966464924 429.32809877739163 954.6356759731457 422.6482570144487Q960.6040552997989 415.92888956060074 960.6040552997989 403.9921309072944L960.6040552997989 403.9921309072944L960.6040552997989 383.7945028548455Q960.6040552997989 371.5415386742993 957.2048458819698 365.0197996749763Q953.7661107732359 358.4585349847483 945.9400239740484 355.77078800320913Q938.1139371748608 353.043515330765 923.6080086127303 353.043515330765L923.6080086127303 353.043515330765Q882.6198671442578 353.043515330765 864.4380493279633 359.88145985732785L864.4380493279633 359.88145985732785Q845.623820457189 366.9960842202257 845.623820457189 384.6245423638503L845.623820457189 384.6245423638503L845.623820457189 482.25299889917045Q845.623820457189 493.359718043472 852.6198677473719 498.18185233388056Q859.5763893466498 503.04351231519405 874.9518831086901 503.04351231519405L874.9518831086901 503.04351231519405Q920.4854790312362 503.04351231519405 958.6277707545495 493.0830382071371L958.6277707545495 493.0830382071371Q959.7740157907941 491.06722797098274 959.7740157907941 487.39133871681884L959.7740157907941 487.39133871681884Q959.7740157907941 483.1225640990802 958.3510909182146 480.276714353921L958.3510909182146 480.276714353921ZM878.0744126901842 385.77078740009495Q877.5210530175143 374.38738841945843 884.6356773804122 369.68383120176486Q891.7503017433099 365.0197996749763 911.6712499594239 365.0197996749763L911.6712499594239 365.0197996749763Q921.038838703906 365.0197996749763 924.5961508853549 369.40715136542997Q928.1534630668039 373.8340287467886 928.1534630668039 385.77078740009495L928.1534630668039 385.77078740009495L928.1534630668039 403.12256570738464Q928.1534630668039 412.25300030643683 924.4775738126399 415.6522097242658Q920.7621588675711 419.09094483299975 909.1020800505996 421.62058905091897L909.1020800505996 421.62058905091897Q897.1653213972933 423.9130791234083 878.0744126901842 425.6126838323228L878.0744126901842 425.6126838323228L878.0744126901842 385.77078740009495ZM1118.5487161561305 374.6640682557934Q1118.5487161561305 368.41900909280525 1118.1139335561757 365.0197996749763Q1117.718676647126 361.58106456624233 1115.7028664109714 359.0118946574181L1115.7028664109714 359.0118946574181Q1110.880732120563 353.3201951670999 1096.3748035584324 353.3201951670999L1096.3748035584324 353.3201951670999Q1080.999309796392 353.3201951670999 1062.5012864528576 358.7352148210832L1062.5012864528576 358.7352148210832Q1062.2246066165228 360.4348195299977 1062.2246066165228 362.4506297661521L1062.2246066165228 362.4506297661521Q1062.2246066165228 366.4427245475559 1063.9242113254372 370.3952936380547L1063.9242113254372 370.3952936380547Q1073.0151202335846 368.14232925647036 1081.275989632727 368.14232925647036L1081.275989632727 368.14232925647036Q1084.3985192142209 368.14232925647036 1085.2680844141307 370.9881790016295L1085.2680844141307 370.9881790016295Q1086.0981239231355 373.8340287467886 1086.0981239231355 381.77869261869114L1086.0981239231355 381.77869261869114L1086.0981239231355 478.8537894813415Q1071.86887519734 488.8142635893984 1048.548717563397 488.8142635893984L1048.548717563397 488.8142635893984Q1040.0111683279197 488.8142635893984 1036.4538561464706 483.95260360808487Q1032.896543965022 479.1304693176764 1032.896543965022 467.1541849734651L1032.896543965022 467.1541849734651L1032.896543965022 365.2964795113112Q1032.896543965022 360.4348195299977 1032.619864128687 358.7352148210832L1032.619864128687 358.7352148210832Q1031.7502989287773 354.1897603670096 1025.2285599294541 353.3201951670999L1025.2285599294541 353.3201951670999Q1022.9360698569648 353.043515330765 1015.821445494067 353.043515330765L1015.821445494067 353.043515330765Q996.4538569506229 353.043515330765 977.4024739344187 358.4585349847483L977.4024739344187 358.4585349847483Q976.5329087345091 361.0277048935725 976.5329087345091 363.2806692751568L976.5329087345091 363.2806692751568Q976.5329087345091 366.7194043838908 977.6791537707537 368.69568892914015L977.6791537707537 368.69568892914015L997.3234221505327 368.14232925647036Q998.7463470231122 368.14232925647036 999.615912223022 371.2648588379644L999.615912223022 371.2648588379644Q1000.4459517320266 374.1107085831235 1000.4459517320266 383.7945028548455L1000.4459517320266 383.7945028548455L1000.4459517320266 471.7391651184436Q1000.4459517320266 489.64430309840316 1011.2759910399933 496.2055677886312L1011.2759910399933 496.2055677886312Q1016.6910106939768 499.60477720646014 1024.912354402214 501.1858048426596Q1033.1732238013565 502.72730678795415 1045.4261879819028 502.72730678795415L1045.4261879819028 502.72730678795415Q1072.7384403972496 502.72730678795415 1089.5368590318694 492.2134730072274L1089.5368590318694 492.2134730072274Q1093.5289538132733 498.4585321702155 1102.3431828850855 500.5929194790848Q1111.1574119568977 502.72730678795415 1129.3787554640971 502.72730678795415L1129.3787554640971 502.72730678795415Q1150.4459487164559 502.72730678795415 1164.3589919150115 500.4743424063699Q1178.3115608044723 498.18185233388056 1186.8491100399497 493.0830382071371L1186.8491100399497 493.0830382071371Q1195.109979439092 488.22137822582357 1198.943971456876 480.83007402659086Q1202.7779634746598 473.4387698273581 1202.7779634746598 462.60873051939143L1202.7779634746598 462.60873051939143L1202.7779634746598 374.6640682557934Q1202.7779634746598 368.41900909280525 1202.3827065656099 365.0197996749763Q1201.947923965655 361.58106456624233 1199.9321137295005 359.0118946574181L1199.9321137295005 359.0118946574181Q1195.109979439092 353.3201951670999 1180.6040508769615 353.3201951670999L1180.6040508769615 353.3201951670999Q1165.2285571149214 353.3201951670999 1146.730533771387 358.7352148210832L1146.730533771387 358.7352148210832Q1146.453853935052 360.4348195299977 1146.453853935052 362.4506297661521L1146.453853935052 362.4506297661521Q1146.453853935052 366.4427245475559 1148.1534586439666 370.3952936380547L1148.1534586439666 370.3952936380547Q1157.2443675521135 368.14232925647036 1165.5052369512562 368.14232925647036L1165.5052369512562 368.14232925647036Q1168.6277665327502 368.14232925647036 1169.4973317326599 370.9881790016295L1169.4973317326599 370.9881790016295Q1170.3668969325697 373.8340287467886 1170.3668969325697 381.77869261869114L1170.3668969325697 381.77869261869114L1170.3668969325697 461.4624854831468Q1170.3668969325697 470.3162402458641 1168.5091894600355 475.8498369725624Q1166.651481987501 481.3834336992607 1162.382707369762 484.5454889716597L1162.382707369762 484.5454889716597Q1158.1139327520236 487.9446983894887 1150.9993083891256 489.2095204984483Q1143.8846840262277 490.51386829831296 1132.5012850455914 490.51386829831296L1132.5012850455914 490.51386829831296Q1124.5170954827836 490.51386829831296 1121.5526686649096 486.0869909169542Q1118.5487161561305 481.69963922650055 1118.5487161561305 468.5771098460446L1118.5487161561305 468.5771098460446L1118.5487161561305 374.6640682557934ZM1374.951873056787 497.6284926612107Q1375.821438256697 495.0593227523865 1375.821438256697 492.7668326798972L1375.821438256697 492.7668326798972Q1375.821438256697 489.3676232620682 1374.6751932204525 487.39133871681884L1374.6751932204525 487.39133871681884L1355.0309248406734 487.9446983894887Q1351.908395259179 487.9446983894887 1351.908395259179 472.29252479111346L1351.908395259179 472.29252479111346L1351.908395259179 373.8340287467886Q1351.908395259179 362.727309602487 1344.9518736599011 357.9051753120785Q1337.9558263697186 353.043515330765 1322.619858298583 353.043515330765L1322.619858298583 353.043515330765Q1275.0704521398825 353.043515330765 1238.9439706527237 364.42691431140145L1238.9439706527237 364.42691431140145Q1237.797725616479 366.4427245475559 1237.797725616479 370.11861380171973L1237.797725616479 370.11861380171973Q1237.797725616479 373.8340287467886 1239.2206504890587 377.23323816461755L1239.2206504890587 377.23323816461755Q1245.7819151792867 375.2569536193682 1266.532902904405 371.2648588379644L1266.532902904405 371.2648588379644Q1290.445945901923 367.2727640565606 1298.4301354647305 367.2727640565606L1298.4301354647305 367.2727640565606Q1311.2364593179468 367.2727640565606 1315.3471311720655 370.7114991652945Q1319.4578030261841 374.1107085831235 1319.4578030261841 384.9407478910902L1319.4578030261841 384.9407478910902L1319.4578030261841 407.11466048878845Q1290.9993055745927 408.537585361368 1259.4182785415073 413.3992453426815L1259.4182785415073 413.3992453426815Q1246.3352748519565 416.24509508784064 1240.3668955253033 422.9249368507836Q1234.3985161986502 429.6047786137265 1234.3985161986502 441.5415372670329L1234.3985161986502 441.5415372670329L1234.3985161986502 481.3834336992607Q1234.3985161986502 493.359718043472 1240.9202551979731 498.18185233388056Q1247.481519888201 503.04351231519405 1263.1336934865762 503.04351231519405L1263.1336934865762 503.04351231519405Q1286.7305309568542 503.04351231519405 1319.4578030261841 493.6363978798069L1319.4578030261841 493.6363978798069Q1319.4578030261841 497.9051724975456 1320.6040480624288 499.76287997008006Q1321.7502930986734 501.6205874426145 1325.3076052801225 502.3320498789043Q1328.8649174615712 503.04351231519405 1336.532901497139 503.04351231519405L1336.532901497139 503.04351231519405Q1356.7700552404926 503.04351231519405 1374.951873056787 497.6284926612107L1374.951873056787 497.6284926612107ZM1319.4578030261841 480.83007402659086Q1298.1139299374909 487.07513318957893 1284.754246411605 487.07513318957893L1284.754246411605 487.07513318957893Q1266.8095827407406 487.07513318957893 1266.8095827407406 474.26880933636284L1266.8095827407406 474.26880933636284L1266.8095827407406 442.6877823032775Q1266.8095827407406 432.7273081952206 1270.524997685809 429.8814584500614L1270.524997685809 429.8814584500614Q1275.6633375034576 425.6126838323228 1289.892586229253 423.04351392349855L1289.892586229253 423.04351392349855Q1303.805629427809 420.51386970557934 1319.4578030261841 419.9209843420045L1319.4578030261841 419.9209843420045L1319.4578030261841 480.83007402659086ZM1399.4578014178796 368.14232925647036Q1402.580330999374 368.14232925647036 1402.580330999374 383.7945028548455L1402.580330999374 383.7945028548455L1402.580330999374 471.7391651184436Q1402.580330999374 480.83007402659086 1404.714718308243 486.6798762805291Q1406.8491056171124 492.4901528435623 1411.947919743856 495.92888795229624L1411.947919743856 495.92888795229624Q1416.8095797251694 499.60477720646014 1424.912346360692 501.1858048426596Q1433.0151129962142 502.72730678795415 1445.8214368494305 502.72730678795415L1445.8214368494305 502.72730678795415Q1486.8095783179028 502.72730678795415 1504.4380364615276 493.0830382071371L1504.4380364615276 493.0830382071371Q1513.5684710605797 488.22137822582357 1517.6791429146983 480.6719712629709Q1521.829340459722 473.1620899910232 1521.829340459722 462.60873051939143L1521.829340459722 462.60873051939143L1521.829340459722 374.6640682557934Q1521.829340459722 368.41900909280525 1521.3945578597672 365.0197996749763Q1520.9597752598124 361.58106456624233 1518.9834907145632 359.0118946574181L1518.9834907145632 359.0118946574181Q1514.1218307332497 353.3201951670999 1499.6159021711192 353.3201951670999L1499.6159021711192 353.3201951670999Q1484.2404084090786 353.3201951670999 1465.742385065544 358.7352148210832L1465.742385065544 358.7352148210832Q1465.4657052292096 360.4348195299977 1465.4657052292096 362.4506297661521L1465.4657052292096 362.4506297661521Q1465.4657052292096 366.4427245475559 1467.1653099381238 370.3952936380547L1467.1653099381238 370.3952936380547Q1476.2957445371762 368.14232925647036 1484.5170882454136 368.14232925647036L1484.5170882454136 368.14232925647036Q1487.6791435178125 368.14232925647036 1488.5091830268175 370.9881790016295L1488.5091830268175 370.9881790016295Q1489.378748226727 373.8340287467886 1489.378748226727 381.77869261869114L1489.378748226727 381.77869261869114L1489.378748226727 461.4624854831468Q1489.378748226727 474.26880933636284 1485.2285506817034 480.395291426636Q1481.1178788275847 486.52177351690915 1472.8570094284423 488.4980580621585Q1464.5961400293 490.51386829831296 1448.9439664309243 490.51386829831296L1448.9439664309243 490.51386829831296Q1440.999302559022 490.51386829831296 1437.995350050243 485.6522083169994Q1435.0309232323689 480.83007402659086 1435.0309232323689 468.5771098460446L1435.0309232323689 468.5771098460446L1435.0309232323689 365.2964795113112Q1435.0309232323689 359.60478002099296 1434.7147177051288 358.1818551484134L1434.7147177051288 358.1818551484134Q1433.8846781961242 354.1897603670096 1427.323413505896 353.3201951670999L1427.323413505896 353.3201951670999Q1425.0704491243118 353.043515330765 1417.955824761414 353.043515330765L1417.955824761414 353.043515330765Q1397.7186710180604 353.043515330765 1379.5368532017656 358.4585349847483L1379.5368532017656 358.4585349847483Q1378.667288001856 361.0277048935725 1378.667288001856 363.2806692751568L1378.667288001856 363.2806692751568Q1378.667288001856 366.7194043838908 1379.8135330381006 368.69568892914015L1379.8135330381006 368.69568892914015L1399.4578014178796 368.14232925647036ZM1671.7898117532463 480.276714353921Q1662.975582681434 482.52967873550534 1643.4894170652751 485.6522083169994Q1623.9637257582108 488.8142635893984 1612.5803267775746 488.8142635893984L1612.5803267775746 488.8142635893984Q1599.7740029243582 488.8142635893984 1595.6633310702396 485.37552848066446Q1591.552659216121 481.9763190628355 1591.552659216121 471.14627975486883L1591.552659216121 471.14627975486883L1591.552659216121 438.69568752187377Q1617.441986758888 436.9960828129593 1649.0230137919734 432.17394852255075L1649.0230137919734 432.17394852255075Q1662.1060174815243 429.32809877739163 1668.0743968081774 422.6482570144487Q1674.0823018257356 415.92888956060074 1674.0823018257356 403.9921309072944L1674.0823018257356 403.9921309072944L1674.0823018257356 383.7945028548455Q1674.0823018257356 371.5415386742993 1670.6435667170017 365.0197996749763Q1667.2443572991729 358.4585349847483 1659.4182704999853 355.77078800320913Q1651.5921837007977 353.043515330765 1637.0862551386667 353.043515330765L1637.0862551386667 353.043515330765Q1596.0981136701944 353.043515330765 1577.876770162995 359.88145985732785L1577.876770162995 359.88145985732785Q1559.102066983126 366.9960842202257 1559.102066983126 384.6245423638503L1559.102066983126 384.6245423638503L1559.102066983126 482.25299889917045Q1559.102066983126 493.359718043472 1566.058588582404 498.18185233388056Q1573.0546358725865 503.04351231519405 1588.390603943722 503.04351231519405L1588.390603943722 503.04351231519405Q1633.9241998662678 503.04351231519405 1672.0664915895813 493.0830382071371L1672.0664915895813 493.0830382071371Q1673.212736625826 491.06722797098274 1673.212736625826 487.39133871681884L1673.212736625826 487.39133871681884Q1673.212736625826 483.1225640990802 1671.7898117532463 480.276714353921L1671.7898117532463 480.276714353921ZM1591.552659216121 385.77078740009495Q1590.9597738525458 374.38738841945843 1598.074398215444 369.68383120176486Q1605.1890225783418 365.0197996749763 1625.1099707944554 365.0197996749763L1625.1099707944554 365.0197996749763Q1634.517085229843 365.0197996749763 1638.0743974112916 369.40715136542997Q1641.6317095927407 373.8340287467886 1641.6317095927407 385.77078740009495L1641.6317095927407 385.77078740009495L1641.6317095927407 403.12256570738464Q1641.6317095927407 412.25300030643683 1637.9162946476717 415.6522097242658Q1634.240405393508 419.09094483299975 1622.5408008856316 421.62058905091897L1622.5408008856316 421.62058905091897Q1610.604042232325 423.9130791234083 1591.552659216121 425.6126838323228L1591.552659216121 425.6126838323228L1591.552659216121 385.77078740009495Z " fill="#000000" transform="matrix(0.5226744302771529,0,0,0.5226744302771528,0,76.27261494392779)"/></g></svg>